<svg id="Слой_1" data-name="Слой 1" xmlns="http://www.w3.org/2000/svg" viewBox="0 0 426.39 409.34"><defs><style>.cls-1{fill:#29252c;}.cls-2{fill:#f33535;}</style></defs><g id="SvgjsG1991"><path class="cls-1" d="M78,60.44h2l-1.58-.79Zm5.14-2.37c0,.39,0,.39.39.39l1.58-1.18C84.31,56.88,83.92,56.88,83.13,58.07ZM67.72,68.73l1.19-.79a1.22,1.22,0,0,0,.39-.79h-.79l-.79,1.58C67.33,68.34,67.33,68.73,67.72,68.73Zm8.69-11.45H76l-.79.79h1.18Zm-8.29,9.48,2.37-2a1.45,1.45,0,0,0,.39-1.18H69.7L65,67.94l-.79,1.58,2.76-2.37Z" transform="translate(0 -11.74)"/><path class="cls-1" d="M38.1,98.75V98a6.67,6.67,0,0,1,2.76-4.34l3.56-2.37,2-2.37,2.77-2.77,1.58-1.58,1.58-1.18a7.5,7.5,0,0,0,3.16-3.56l1.58-2A23.23,23.23,0,0,0,61,72.68l.79-1.18L63,70.71l-.79-1.19,1.58-2c3.16-2.37,5.53-5.53,8.69-7.9l1.19-1.19a5.54,5.54,0,0,1,2-2.37l3.16-1.58h1.58a5.54,5.54,0,0,0,2.77-2.37v-.79a13.8,13.8,0,0,1,5.13-5.53l3.16-2,.79-.79,1.58-1.58,3.95-2h.79l-4.34,1.58-5.53,4c-2.37,2-5.53,2.37-7.11,5.53h1.18c-2.76.79-5.53,2-6.71,4.74s-3.16,2.37-4.74,3.56a1.58,1.58,0,0,0-1.19,1.58c-3.16-.4-4.34,2-5.92,3.55v3.16a15.37,15.37,0,0,0-6.32,5.53c-6.32.4-6.32,8.3-11.85,9.88h-.4a.8.8,0,0,0,0,.79c-1.18,0-2,.79-1.58,2l-.79,2c-2.76,1.58-2.37,4.34-3.95,6.71-3.16,2-4.34,5.93-6.71,8.69l1.18,2,.79-.79a46.56,46.56,0,0,1,3.56-5.14ZM212.69,13l2.37.79h.79a8.74,8.74,0,0,0,5.53.79,16.18,16.18,0,0,1,7.51.39h4.74a5.55,5.55,0,0,1,4.74,1.19.39.39,0,0,1,0,.39h-1.58a.36.36,0,0,0,0,.4h2.76a7.12,7.12,0,0,1,5.14,0c.79,0,.39.39.79.79l2,.79h-.79c-.79-1.58-2-1.58-3.16-1.58a38.32,38.32,0,0,0-17-3.56h-3.16a38.64,38.64,0,0,0-14.22-1.58h.79Zm28.84,12.24h0Zm29.62,2a3.57,3.57,0,0,0,4,.79h2.37a12.21,12.21,0,0,0-7.11-2.77l-2.76-.79,2,1.19Zm-13.43-5.14c0,.4.4.79.79,1.19h.79l2-1.19a16.66,16.66,0,0,0-6.72-2.37l2.77,1.58ZM287,32.79l3.16,2A3.52,3.52,0,0,0,287,32.79Z" transform="translate(0 -11.74)"/><path class="cls-1" d="M390.84,300.6l2.37-6.32,2.37-5.92c.79-2,2.37-7.11,3.16-10.27a6.7,6.7,0,0,1,1.18-2.77h.4V271c2-.4,1.58-2.37,2-3.56l3.16-18.57a50,50,0,0,0,0-24.49,7.51,7.51,0,0,0-2-6.32v-17c-1.19-3.56,1.18-7.51-1.58-10.67l-3.16-12.64a1.51,1.51,0,0,0,0-.79l-.79-2.37a2,2,0,0,1,0-1.58h.39c1.19,0,1.19-2,1.19-3.55a11.87,11.87,0,0,0-1.58-4.35l-1.19-1.58a4.38,4.38,0,0,1-.79-2.76,26.28,26.28,0,0,0-.79-7.9V150.5c-.79-2.77-1.58-5.93-2.37-8.69l-.79-2a10,10,0,0,1-1.58-4.34,9.89,9.89,0,0,0-1.18-3.16l-2.37-4a3.13,3.13,0,0,0-2.37-.79h-.4V126.4h-.79v-3.16h-.39v-.79a2.54,2.54,0,0,0,0-.39v-.79c.39-.79.39-1.19-.4-2a7,7,0,0,1-1.58-2.37l-.79-2.37a11.41,11.41,0,0,0-2.76-4.74,8.59,8.59,0,0,1-2-2.76l-2.76-6.32a17.19,17.19,0,0,0-2.37-4l-2.37-3.16a9.48,9.48,0,0,1-1.58-3.16l-.79-1.19a2.36,2.36,0,0,1-.4-2,2,2,0,0,0-.79-1.58l-1.58-1.19v.79c.4.79,0,1.19-.39,1.19h-.79l1.18,3.95,1.19,2L366.74,96h-.39l-.79-.79-.79-.79A5.15,5.15,0,0,0,360,90.06V87.3c-1.19-4.74-6.32-5.14-8.69-8.3A5.91,5.91,0,0,0,347,75.45l-3.16-3.56A44.68,44.68,0,0,0,331.59,60l-3.16-2.37-1.58-1.18c-2.77-2.77-4-7.11-8.69-7.11l-3.16-2-3.56-2.76a8.7,8.7,0,0,0-7.11-5.14,20.13,20.13,0,0,0-9.08-4.74l.79.79,2,1.58,5.14,2.77a33.56,33.56,0,0,1,8.29,6.32,26.91,26.91,0,0,0,5.93,4.34l2.37,2c.39.39.79.79.39,1.18h-.39l-3.56-1.18a22.42,22.42,0,0,1-7.9-3.16L303.54,47l-5.13-2.77h-.79c-1.19-.39-1.58-1.58-3.16-2l-3.16-.79-9.88-2a10.3,10.3,0,0,1-3.55-2.76,6.68,6.68,0,0,1-3.56-1.19L270.36,34a71.15,71.15,0,0,1-11.06-3.16L256.93,30l-4-1.18h-2l-.79-1.19v-.39H243.9l-2.37-2-1.58.79-1.58.79h-.79l-3.56-2c-2.37,2.37-4.35-.79-6.32-.4l-3.95-1.18a4.77,4.77,0,0,1-4.74,0h-4.74a2.39,2.39,0,0,1-2-2.37l1.19-.79h2.37a2.62,2.62,0,0,1,.39,1.18c0,.79.79.79,2,.79H219l-1.58-2.37a4.36,4.36,0,0,0-4-.79l-3.95,1.19h-.4c1.19.79.79,1.18.79,2H203.6L202,21.33l-3.16-1.58h-.39L195.7,19h-9.08l1.58-.79,3.16-.79h1.18l6.72-1.18,4.34-.79,2.37-.79h-4.34a33,33,0,0,0-13.43,0h-5.14l-13.43-.4c-5.53.4-11.06,0-15.4,4.74-9.88-1.58-18.57,2.77-27.26,7.11l-8.69,3.56a26.36,26.36,0,0,0-14.61,7.11h1.18l2-1.19,3.16-2,5.13-2.37,3.95-.79a23.79,23.79,0,0,1,7.9-3.56l3.56-1.18h.79c.39.79,2,0,2.76,0h.79c.4,0,.4.39,0,.39l-2.37,1.58,3.95-1.18,3.16-.79-5.13,2.76L129.34,30A4,4,0,0,0,127,32l-1.18,2H127l1.58-.79a5.54,5.54,0,0,1,3.56-2.37l5.92-2h2a.43.43,0,0,1,.59.19.45.45,0,0,1-.2.6h0c-.79.79-2.37,1.18-3.16,2H138l-12.64,3.56-15,6.32a20.58,20.58,0,0,1-9.08,4.74,26,26,0,0,1-6.72,4.34l-3.16.79a5.92,5.92,0,0,1-5.13,3.56l-1.19,2a14.62,14.62,0,0,1-4.74,4.35H80v-.4l-.79.79-.79.79-4,.79h-2l-1.58,2c-.39.39-.39.79,0,.79h.4c-2.37,2.37-4,5.53-7.11,6.71L59,78.61c-2.37,4.74-7.11,6.32-10.27,10.27s-5.53,15.4-15.4,17l-.79-1.18-.79,2a10.89,10.89,0,0,1-1.58,3.16,66.09,66.09,0,0,0-4.74,8.3,3.08,3.08,0,0,0-.4,2,5.48,5.48,0,0,1-.79,3.16l-2,4.35h.79c1.18,0,1.18,1.18,1.58,2.37l3.16-4.35a8.5,8.5,0,0,1,2.37-2.76,7.94,7.94,0,0,0,3.55-3.56l1.19-1.18,1.58-1.58,2.37-4.35h.79c.39.4.39.4.79,0l.79-1.58h2v3.16l2-2a2,2,0,0,0,0-2,1.55,1.55,0,0,1,.39-1.18,6.16,6.16,0,0,0,1.19-2A5.08,5.08,0,0,1,50,103.1l1.18-.79,1.19-1.19a9.48,9.48,0,0,0,3.16-4L54.69,96a2.93,2.93,0,0,1,.79-1.58h2l2.37-3.16,2.37-1.19H63A192.7,192.7,0,0,0,41.26,118.5h0a191.31,191.31,0,0,0-20.94,44.24h-2l-2-1.58c-.79-.79-.39-2.76-1.58-3.55h.4c1.18-2-.4-4.74,1.18-6.72s.4-5.53-3.55-4.74-5.93,2-5.14,5.93-3.95,7.11-4.34,11.45-2,2-1.19,3.56v15.4c.4,3.16-2,7.11,3.16,8.3l5.14,3.55c.39,2-2,6.32,3.55,5.14a194.53,194.53,0,0,0-1.18,19.75c0,4.34.39,8.69.39,13v-1.58c-.39-1.58-.39-3.16-.79-5.13l-1.18,1.18v-.79h-2c0,2-.39,3.16-1.58,3.56a3.47,3.47,0,0,0-.39,2c0,.4.39,1.19.79.79s1.58.79,2.76,1.58-.79,1.19-1.58.79-.79.4-.79,1.19V237l2,5.93c0,1.18-.4,2.37-.4,3.55a6.67,6.67,0,0,0,.79,3.16H9.66v-1.18l-2.77-.79V245.3a6,6,0,0,0,0-2,56.68,56.68,0,0,1-1.18-7.11,65.24,65.24,0,0,1-.79-13.82,3.5,3.5,0,0,1,.39-2v.79a12.19,12.19,0,0,1,.4,2,3.11,3.11,0,0,0,.39,1.58c.4.79.79,1.58,1.58,1.58s.4-.4.4-.79a8.92,8.92,0,0,0-.4-2,16.17,16.17,0,0,1-1.18-5.13,5.92,5.92,0,0,0-1.19-2.77,6.27,6.27,0,0,1-.79-3.55V209c0-1.19.4-2.37.4-3.56a2,2,0,0,0-.4-1.58H4.13c-3.16,1.58-2.77.79-3.95,6.32v7.11c0,2.77-.4,5.53,0,8.3A41.91,41.91,0,0,0,1,234.63a7.29,7.29,0,0,1,0,2,12.1,12.1,0,0,0,.39,3.55,24,24,0,0,1,.4,5.14A15.3,15.3,0,0,0,2.55,252a5.23,5.23,0,0,1,0,1.58,8.23,8.23,0,0,0,.39,3.16,18.88,18.88,0,0,1,.79,3.56,53.86,53.86,0,0,0,2,8.69A20.48,20.48,0,0,1,6.5,273a6.7,6.7,0,0,0,1.18,2.77,11.56,11.56,0,0,1,2,4.74,34.42,34.42,0,0,0,1.18,4l1.58,5.53a21.4,21.4,0,0,0,2.37,5.92,33.23,33.23,0,0,1,3.16,8.3l.79,2a8.32,8.32,0,0,1,2,3.95,8.19,8.19,0,0,0,1.58,3.16,4.05,4.05,0,0,1,.79,2c.39,1.18.79,1.58,1.58,1.18h.39V320l2,4,2,3.95,4.35,4.74,1.58,1.58c1.18,1.18,2.76,2,3.55,3.95l1.58,1.18a2.8,2.8,0,0,1,1.19,2l.79,2.76a13.1,13.1,0,0,0,2.37,3.56l1.58.79h1.18a.79.79,0,0,1,.49,1,1.5,1.5,0,0,1-.09.18,9.36,9.36,0,0,0,0,2,3.51,3.51,0,0,0,1.58,2H50c1.58-.39,3.16.79,4.74,2.77h.39c0-.4.4-.4,0-.79v-.79c0-.4.4-.79.79-.4a2.79,2.79,0,0,1,1.19,2.37v.79a16.85,16.85,0,0,0,1.58,4.74c2,1.19,2,1.19,2,.4s0-.79.79-.79H63l.79,1.18,3.16,2c2.77,3.16,7.11,2.76,10.27,4.74l6.72,6.71h.79A11.4,11.4,0,0,0,91,382.76a5.13,5.13,0,0,0,4,2.37c0,2,2.37,2.37,4.34,2.77a4.75,4.75,0,0,0,3.16,1.58h.79a6.72,6.72,0,0,0,5.93,2l3.55,3.16,9.48,3.56V399c2,4.34,6.72,2.76,9.88,4l4.34,1.58H138c4.74,1.18,9.48,3.55,14.62,2a2.66,2.66,0,0,0,0,1.58c4.34,2.77,9.48,0,14.22,1.58a11.48,11.48,0,0,0,6.71.4h.4l3.16.79h1.18l3.56.79h1.18a2,2,0,0,1,2,0,31.16,31.16,0,0,0,5.92,1.58h2.37a2.75,2.75,0,0,1,2.77,0h15.4a19.73,19.73,0,0,0,6.32-.4h4l2-.79h13l2.37-.79,2-1.18h8.69v2.37h-5.13l-4.74.79c-1.58.39-2.77,0-3.95.39a9.3,9.3,0,0,1-3.95.79l-5.14,1.19h-1.58a12.3,12.3,0,0,0-5.93.39h-7.11a4.31,4.31,0,0,1-3.55,0H191a5.16,5.16,0,0,0-4.34,1.19h-1.19l-1.18-.79v-1.19h-4.74a16.23,16.23,0,0,0-5.14-1.18H164.5l-2.77-.79-2-.79-8.3-1.58h-2l-2-.79-8.29-2.77-5.53-1.58H125c-.4,0-.4.4-.4.79h.79c5.14,2,10.27,3.56,15.41,5.93H142l3.56.79,5.53,1.58h5.13l2.37.79,2.77,1.18,6.71,1.19,4.35.79,4.34.79h3.16l3.16.79h12.25l3.95.79h9.08l3.95-.79H221c1.58,0,2.37-.4,2.77-1.19h3.95a3.92,3.92,0,0,0,3.16-1.18c-.39.39,0,.39.4.79h1.58v-.79c0-.4,0-.4.79-.79s2.37-.4,2.76.39H238l1.19-.79c.79,0,.79,0,.79.4h2.76l2-.79,3.16-1.58c.39,1.18,1.58,1.58,5.13.79l5.14-1.58h4.74c3.55-.4,7.9,0,10.66-2.77h.79l1.58-1.18,4.35-1.19a23.86,23.86,0,0,0,7.9-3.16l1.58-.79h.39l3.56-2.37,1.58-.79,2-.79h1.58c1.58-.39,1.58-.39,2-1.58s0-.39-.79-.39h-.4l1.58-2H302c1.19-.39,2-.79,2.77-.39h.79a5.13,5.13,0,0,0,3.55-3.56c1.19-1.58,4.35-.79,5.14-3.16l17-12.24c4.35-.4,5.53-4.35,8.69-6.72s9.09-4.34,11.85-8.69l3.56-1.58h.39a3.94,3.94,0,0,0,4.74-2.76v1.58c3.16-1.58,7.11,1.18,10.27-2s0-10.66,3.95-15l2.77-2a47.94,47.94,0,0,0,5.92-16.59l.79-.79c0-1.19,0-2.77,1.58-3.56a3.54,3.54,0,0,0,.79-4.74h-.79a1.18,1.18,0,0,0,0-1.18c2.77,0,3.16-2.77,4.74-3.95v-5.53a2.1,2.1,0,0,1,0-.79,15.29,15.29,0,0,0,.4-2.77Z" transform="translate(0 -11.74)"/><path class="cls-1" d="M104.06,36.74l-1.18.79-1.58,1.18,2-.79Zm24.1-7.9h.39l1.19-.79h-1.58Zm-10.27,3.95-.4.39h.4Zm-81.77,70.7-1.58,1.58h.79A1.58,1.58,0,0,0,36.12,103.49ZM48,89.67a8.37,8.37,0,0,0,1.19-2.37,5.92,5.92,0,0,0-2,2c-.39.4-.39.79,0,.79Zm-4.74,5.92V94.8c-.79,0-2,1.19-3.16,1.19v.79C41.26,98,41.65,97.57,43.23,95.59ZM291.69,36.34h.4l-2-1.18Zm-9.87-5.53c2-.39,3.16,1.58,4.74,2H287L285.77,32l-3.95-2-4.35-2,1.19.79ZM254.56,20.15h-.39l-4.74-.79h2Zm7.9,2.76,5.14,1.58A13,13,0,0,0,262.46,22.91Zm-35.55,0a4,4,0,0,0,.79-2h-2l-1.18,1.18,1.58,1.19Zm19,1.19a2.54,2.54,0,0,0,0,.39Zm177,206.58h-1.18V229.1h1.18c.4,0,.79-1.18.4-1.58s-.4-2.76-1.19-3.16a1.18,1.18,0,0,1-.79-1.18l.79-1.58a1.51,1.51,0,0,0,0-.79h-.79l-.79-1.19c-.39,1.19-.79,2.37-1.58,2.77a2.1,2.1,0,0,0,0,.79c0,.39,0,.79-.39.79h-.4a4.09,4.09,0,0,1-.39,1.18,9,9,0,0,0-1.58,3.56,1.59,1.59,0,0,0,.39,1.58h.4a6.81,6.81,0,0,0-.4,3.16V235a7,7,0,0,1-.39,2h-.4l-1.58,2.77v2.37a5.87,5.87,0,0,1-1.18,4.34h-.79l-.79-.79a3.57,3.57,0,0,1-.4-3.16,25.58,25.58,0,0,0,.4-6.71,1.35,1.35,0,0,0-.4-.79,2,2,0,0,0-.39,1.18v2.37c0,.79-.4,2.37-1.19,2.77s-.39.79-.39,1.18l-.79,2.37,1.18,2c-.79.79-1.58.39-2-.4v4h1.18V252a16.49,16.49,0,0,0-1.18,5.53,14.06,14.06,0,0,0,0,1.59,16,16,0,0,1-.79,5.13,7.85,7.85,0,0,0,0,2.37l-1.19,2.77a12.68,12.68,0,0,1-1.18,2.76l-1.19,2.37-3.55,10.67c1.18,3.55-1.58,5.92-3.16,8.29a10.7,10.7,0,0,1-3.16,9.09v1.58c0,.39.39.79,1.18.39l1.58-1.18.79-1.58h.79c.4.39.79.39,1.58-.4h.79a2,2,0,0,1,.4,2.37,11.61,11.61,0,0,0-.4,3.16c0,.4,0,.79.4.79h.79c.39.4.79,0,1.18-1.18l.79-2h1.19c1.58-.39,1.58-.39,2.37-2.37l2-3.55,1.19-2.37,1.58-3.95a6.31,6.31,0,0,1,1.18-3.95A2.35,2.35,0,0,0,413,286a3.33,3.33,0,0,1,.79-2.37l1.18-1.58,2-4a18.13,18.13,0,0,1,.79-3.56,11.86,11.86,0,0,0,1.18-5.13,15.37,15.37,0,0,1,1.19-3.56v-2c-.4-.79-.4-.79,0-2.37s.39-.79.79-.79a1.55,1.55,0,0,1,.39,1.18l.79-2a9,9,0,0,0,.79-3.55v-1.19c0-.39,0-1.18-.39-1.18v1.58c-.79,0-1.19.79-2,1.18a25.5,25.5,0,0,0,.4-3.16l1.58-.79a2.76,2.76,0,0,0,.79-2.37,5.82,5.82,0,0,1,0-1.18,19.16,19.16,0,0,0,.79-5.53v-.79l1.18-4h.4a1.19,1.19,0,0,0,.39-1.19h-.39a3.57,3.57,0,0,1,.79-3.16,6,6,0,0,0-3.56-3.95Zm-387.1-109a1.19,1.19,0,0,0,0-.79l-.79-.79-.79.79L33,123.24c0,1.19-1.18,2.37-1.18,3.56v.79h.39Zm380.39,98h.39a6.7,6.7,0,0,0,.79-4.74,2,2,0,0,1,.79-2h.4v-.79l-.79-.79h-.4c-.39.39-.79,1.18-1.18,1.18s-.4.4-.4,1.19v1.18a8.7,8.7,0,0,0,.4,4.74ZM51.92,355.9c-.39,0,0,.79,0,1.19l3.16,3.16h.4c-.79-1.19-1.19-2.37-.79-2.77a3.5,3.5,0,0,1-2-.79ZM419.67,216.07h.4a7.85,7.85,0,0,0,0-2.37c-1.19.39-1.19.39-1.19,2.37s.4.39.79,0Z" transform="translate(0 -11.74)"/><path class="cls-1" d="M421.25,244.9a2.35,2.35,0,0,0,.4-2c0-.4-.4-.79-.4-.4h-.79v.79c0,1.58.4,2,.79,1.58Zm.4-32.39h-.4v2.37A3.89,3.89,0,0,0,421.65,212.51ZM67.33,365.78h-.79v.79l.79.79h.79v-.79ZM409.4,234.24c0-.4,0-.4-.39-.4ZM38.89,341.68l2,2-1.58-2.37Z" transform="translate(0 -11.74)"/><rect class="cls-1" x="41.12" y="332.17"/><path class="cls-1" d="M38.1,118.9h-.4v0ZM366.74,92.83,366,91.64h-.39ZM22.69,128a1.19,1.19,0,0,0,.4-.79V128ZM411.77,239.37v0Zm-347.21,126h-.39c.39.4.79,0,.39-.39Zm.79,2.77h.4l-.4-.4Z" transform="translate(0 -11.74)"/></g><g id="SvgjsG1992"><path class="cls-2" d="M191.61,220.89a10.52,10.52,0,0,1,2.93,3,10,10,0,0,1,1.42,5.67v5.49H180.82q-4.73,0-7-3c-1.52-2-2.27-4.79-2.27-8.32V169.25q0-7.19-3.5-10.59a12.13,12.13,0,0,0-8.8-3.41,19.35,19.35,0,0,0-5.58.76,27.48,27.48,0,0,0-4.45,1.7,25.26,25.26,0,0,0-4,2.27v56.94a4.17,4.17,0,0,0,.57,2.46,14.85,14.85,0,0,0,1.32,1.51,10.41,10.41,0,0,1,2.94,3,10,10,0,0,1,1.41,5.67v5.49H135.8c-2,0-3.94-1.11-5.76-3.31a11.18,11.18,0,0,1-2.75-7.29V167.93a11.92,11.92,0,0,0-4.63-9.84,12.84,12.84,0,0,0-4.54-2.18,19.94,19.94,0,0,0-5-.66,13.9,13.9,0,0,0-4.64.76,24.57,24.57,0,0,0-3.88,1.7,18.59,18.59,0,0,0-2.74,1.8l-1,.85v56.37a4.58,4.58,0,0,0,.57,2.65,8.6,8.6,0,0,0,1.51,1.51,11.9,11.9,0,0,1,2.74,3,9.89,9.89,0,0,1,1.42,5.67v5.49H76.41V229.4a9.89,9.89,0,0,1,1.42-5.67,10.26,10.26,0,0,1,2.93-3,8.6,8.6,0,0,0,1.51-1.51,5,5,0,0,0,.57-2.84v-55.8a3.69,3.69,0,0,0-1-2.56c-.63-.69-1.29-1.38-2-2.08a29.24,29.24,0,0,1-2-2.17,4.59,4.59,0,0,1-.94-3v-10H96.46a3.74,3.74,0,0,1,2.36.66,4.13,4.13,0,0,1,1.23,1.42,4.25,4.25,0,0,1,.76,1.89,30.45,30.45,0,0,1,4.92-2.46,42.09,42.09,0,0,1,5.77-1.7,32.29,32.29,0,0,1,7.28-.76q14.57,0,20.81,7.95a45,45,0,0,1,6-4,43.44,43.44,0,0,1,7.28-2.74A36.73,36.73,0,0,1,163,139.74q14.19,0,20.43,7.28t6.24,21.85v48a4.79,4.79,0,0,0,.48,2.46,6.15,6.15,0,0,0,1.42,1.51Zm77.23-1.32a12.18,12.18,0,0,1,3.31,3.68,11.31,11.31,0,0,1,1.8,6.34v5.49H256a5.18,5.18,0,0,1-3.69-1.33,5.88,5.88,0,0,1-1.79-2.83,14.25,14.25,0,0,1-4,2.45,33,33,0,0,1-4.82,1.71,24.13,24.13,0,0,1-6.34.75q-14.56,0-20.9-8.23t-6.34-23v-.57A36.75,36.75,0,0,1,210.21,191a23.79,23.79,0,0,1,5.76-9,25.72,25.72,0,0,1,8.61-5.39,40.77,40.77,0,0,1,10.59-2.46,71.12,71.12,0,0,0,7.48-.95c1.95-.38,3.5-.69,4.63-.94a18.29,18.29,0,0,0,2.84-.95V170a55.83,55.83,0,0,0-.29-5.77,12.87,12.87,0,0,0-1.41-4.83A7.7,7.7,0,0,0,245,156.2a14.07,14.07,0,0,0-6.24-1.14,16.62,16.62,0,0,0-6.24.95,7.58,7.58,0,0,0-3.31,2.36,7.21,7.21,0,0,0-1.33,3.12,20.64,20.64,0,0,0-.28,3.41v-.19a3.85,3.85,0,0,1-1.23,3.12,6.87,6.87,0,0,1-3.22,1.42,30.24,30.24,0,0,1-4.54.47c-1.7.07-3.37.1-5,.1h-4V163a26.6,26.6,0,0,1,1.51-9,19.56,19.56,0,0,1,4.92-7.56,24.4,24.4,0,0,1,8.89-5.3,40.48,40.48,0,0,1,13.62-2,43.12,43.12,0,0,1,13.71,1.89,23.08,23.08,0,0,1,9.08,5.4,19.92,19.92,0,0,1,5,8.51,39.88,39.88,0,0,1,1.51,11.44v48.8c0,1,0,1.9.09,2.65a2.29,2.29,0,0,0,.85,1.71Zm-30.26,1.7a13.64,13.64,0,0,0,5.67-1,10.61,10.61,0,0,0,3.6-2.56,11.92,11.92,0,0,0,2.46-3.59V186.46a24.46,24.46,0,0,1-3,.76c-1,.25-2.3.5-3.88.76s-3.5.5-5.77.75a12.69,12.69,0,0,0-9,5,17,17,0,0,0-3.5,10.87v1.7q0,6.81,3.59,10.88a12.47,12.47,0,0,0,9.84,4.07Zm84.8-81.53q14.19,0,20.05,7.38t5.87,21.94v35.37q0,14.56-6.53,23t-20.71,8.41a24.23,24.23,0,0,1-8.8-1.32,27.63,27.63,0,0,1-6.52-3.78V264.4a4.62,4.62,0,0,0,.56,2.64,5.22,5.22,0,0,0,1.52,1.33,13.64,13.64,0,0,1,2.93,3.21,9.93,9.93,0,0,1,1.42,5.68v5.48H282.34v-6.43a9.69,9.69,0,0,1,1.32-5.29,9.4,9.4,0,0,1,2.84-3,9.36,9.36,0,0,0,1.6-1.61,3.68,3.68,0,0,0,.67-2.36V159a4,4,0,0,0-2.08-4,10.13,10.13,0,0,1-2.94-3.12,10.46,10.46,0,0,1-1.41-5.77V140.5h20.8a3,3,0,0,1,2.08.66,4.52,4.52,0,0,1,1.14,1.42,5.58,5.58,0,0,1,.38,2.08,22.67,22.67,0,0,1,5.2-2.93q4.26-2,11.44-2Zm7.95,28.94q-.37-7.56-3.79-11.35a11,11,0,0,0-8.51-3.78,14.46,14.46,0,0,0-4.82.76,24.57,24.57,0,0,0-3.88,1.7,20.14,20.14,0,0,0-3.59,2.46v56A8.93,8.93,0,0,0,310,217.3a18.41,18.41,0,0,0,4.26,2,18.79,18.79,0,0,0,6,.85,10.13,10.13,0,0,0,8.23-3.5q2.93-3.49,2.93-11.06V168.68Z" transform="translate(0 -11.74)"/></g></svg>