<?xml version="1.0" standalone="no"?>
<!DOCTYPE svg PUBLIC "-//W3C//DTD SVG 20010904//EN"
 "http://www.w3.org/TR/2001/REC-SVG-20010904/DTD/svg10.dtd">
<svg version="1.0" xmlns="http://www.w3.org/2000/svg"
 width="852.000000pt" height="852.000000pt" viewBox="0 0 852.000000 852.000000"
 preserveAspectRatio="xMidYMid meet">
<metadata>
Created by potrace 1.14, written by Peter Selinger 2001-2017
</metadata>
<g transform="translate(0.000000,852.000000) scale(0.100000,-0.100000)"
fill="#000000" stroke="none">
<path d="M4211 8340 c41 -24 142 -44 239 -47 288 -9 310 -11 310 -37 0 -16 47
-13 63 3 8 8 3 11 -15 11 -15 0 -29 4 -32 9 -3 5 -20 11 -38 15 -18 3 -46 8
-63 11 -16 4 -70 8 -120 9 -49 2 -124 11 -165 20 -83 18 -206 22 -179 6z"/>
<path d="M3845 8301 c-4 -3 -138 -7 -298 -7 -340 -2 -360 -5 -432 -60 -30 -23
-43 -25 -127 -26 -51 0 -100 -4 -108 -8 -8 -5 -28 -10 -45 -13 -39 -7 -101
-30 -153 -56 -23 -12 -42 -18 -42 -14 0 5 -4 3 -8 -2 -9 -12 -95 -55 -111 -55
-6 0 -11 -4 -11 -10 0 -13 0 -13 47 4 21 7 64 14 93 13 30 0 49 -2 43 -4 -7
-3 -13 -8 -13 -13 0 -9 13 -8 43 3 36 14 47 16 47 9 0 -8 -49 -32 -66 -32 -7
0 -14 -4 -16 -9 -1 -6 -16 -12 -33 -15 -37 -7 -86 -27 -101 -41 -12 -11 -34
-50 -34 -59 0 -10 34 7 70 34 19 15 69 37 110 49 81 23 110 26 110 12 0 -12
-79 -58 -116 -67 -154 -36 -444 -150 -520 -204 -22 -16 -69 -40 -105 -54 -36
-15 -77 -38 -91 -51 -15 -14 -34 -25 -43 -25 -8 0 -15 -4 -15 -9 0 -5 -19 -13
-43 -19 -26 -7 -55 -25 -77 -47 -18 -19 -44 -35 -55 -35 -14 0 -26 -10 -34
-26 -6 -15 -15 -24 -18 -20 -10 10 -32 -14 -27 -29 3 -8 -5 -19 -18 -26 -13
-6 -25 -15 -28 -19 -12 -15 -84 -42 -128 -47 -44 -5 -88 -36 -76 -54 4 -7 -48
-71 -84 -103 -68 -60 -141 -136 -167 -174 -16 -24 -37 -49 -46 -56 -10 -7 -44
-34 -75 -62 -32 -27 -64 -48 -72 -46 -10 2 -13 -2 -9 -12 4 -9 1 -15 -5 -13
-6 1 -13 -4 -16 -12 -3 -9 0 -11 8 -6 6 4 -10 -35 -36 -86 -64 -122 -133 -195
-204 -214 -3 -1 -13 -5 -24 -10 -11 -5 -21 -3 -26 5 -5 9 -14 -2 -28 -32 -11
-25 -35 -70 -54 -99 -54 -85 -75 -132 -80 -175 -3 -21 -15 -58 -26 -81 -27
-52 -27 -59 -1 -66 12 -3 18 -10 14 -16 -3 -6 0 -11 7 -11 7 1 29 24 48 51 19
28 41 56 48 63 71 61 147 148 167 189 10 21 25 37 34 37 9 0 25 10 35 21 21
25 39 14 39 -25 l0 -26 24 25 c19 18 24 31 19 49 -3 14 -1 28 5 32 6 3 17 21
25 39 8 19 38 52 71 77 69 52 108 105 93 124 -8 8 -8 14 0 19 6 3 7 11 4 17
-5 7 0 9 14 6 16 -4 29 3 49 26 31 37 83 73 83 59 0 -5 -17 -27 -38 -49 -21
-23 -60 -69 -87 -104 -28 -34 -57 -70 -66 -80 -16 -17 -101 -132 -129 -175 -8
-12 -36 -53 -61 -91 -184 -278 -331 -571 -435 -871 -22 -63 -33 -83 -47 -83
-23 0 -77 52 -78 77 -4 60 5 142 18 164 31 52 -10 104 -71 93 -81 -14 -106
-40 -104 -104 1 -56 -5 -78 -47 -149 -18 -31 -36 -75 -40 -98 -4 -24 -10 -45
-14 -48 -9 -5 -13 -430 -5 -457 3 -9 17 -21 33 -26 15 -6 52 -27 80 -47 47
-34 52 -41 48 -69 -6 -48 6 -70 39 -71 33 0 31 16 18 -170 -11 -163 -11 -349
1 -357 6 -4 -11 -5 -37 -2 -45 6 -48 5 -48 -17 0 -12 -9 -32 -20 -44 -16 -17
-19 -27 -11 -46 5 -13 10 -20 10 -16 1 12 61 -32 61 -45 0 -6 -10 -8 -25 -4
-23 6 -25 4 -25 -26 0 -18 8 -53 17 -78 24 -66 24 -238 0 -176 -3 8 -16 16
-29 18 -19 2 -22 9 -21 38 1 19 -2 60 -7 90 -25 148 -32 220 -32 305 1 107 2
114 16 61 8 -26 20 -52 27 -57 19 -12 23 13 9 57 -10 30 -14 49 -24 110 -1 7
-8 20 -16 30 -11 13 -15 46 -15 131 0 62 -4 113 -8 113 -19 0 -67 -35 -68 -50
0 -8 -3 -26 -7 -40 -3 -14 -6 -117 -6 -230 1 -187 4 -246 20 -395 4 -27 8 -84
10 -125 3 -83 19 -200 34 -270 6 -25 13 -58 16 -75 3 -16 12 -55 20 -85 8 -30
17 -70 20 -88 2 -19 17 -59 33 -90 27 -54 57 -142 67 -200 3 -14 9 -32 13 -41
5 -9 10 -20 10 -26 5 -29 15 -61 24 -72 5 -7 6 -13 1 -13 -5 0 -4 -4 1 -8 13
-8 61 -115 71 -156 4 -16 22 -59 40 -95 19 -36 34 -73 34 -82 0 -10 5 -21 11
-24 12 -8 33 -56 30 -68 -1 -5 8 -11 19 -14 20 -5 23 -12 21 -48 -1 -12 17
-59 40 -105 32 -64 63 -105 130 -174 48 -50 104 -108 123 -128 20 -20 36 -47
36 -60 1 -41 56 -116 92 -126 29 -7 33 -12 30 -39 -4 -34 32 -78 56 -68 17 6
53 -13 71 -38 14 -20 14 -20 22 1 13 35 36 16 42 -36 7 -56 33 -112 53 -112 8
0 14 5 14 10 0 18 46 11 65 -10 10 -11 23 -20 30 -20 7 0 20 -9 29 -19 13 -15
14 -20 4 -24 -10 -4 -10 -8 2 -16 10 -7 17 -7 21 0 4 7 16 6 36 -5 17 -8 41
-17 54 -19 65 -12 138 -71 292 -236 21 -23 43 -41 48 -41 5 0 21 -11 34 -24
13 -14 34 -27 45 -31 11 -4 32 -17 45 -31 13 -13 29 -24 36 -24 11 0 28 -7
140 -59 25 -11 57 -21 70 -21 13 0 41 -15 62 -33 20 -18 54 -39 75 -46 93 -32
142 -56 147 -73 10 -30 59 -56 116 -63 30 -3 80 -15 112 -25 31 -11 65 -20 74
-20 18 0 120 -28 143 -40 8 -4 48 -7 88 -6 59 1 72 -2 72 -15 0 -24 56 -36
156 -34 49 1 110 -4 136 -11 26 -6 66 -10 90 -8 40 3 64 0 176 -25 23 -5 44
-5 47 -1 3 4 33 -1 67 -12 56 -18 91 -20 333 -21 149 0 297 3 330 8 33 4 123
9 201 11 130 3 174 10 214 33 17 9 176 15 189 6 5 -3 7 -14 4 -24 -4 -16 -14
-19 -61 -20 -32 0 -68 -3 -82 -6 -14 -3 -50 -8 -80 -11 -30 -3 -57 -7 -60 -9
-3 -2 -24 -6 -48 -10 -23 -3 -62 -12 -87 -19 -24 -8 -46 -11 -50 -8 -7 7 -71
6 -110 -2 -16 -4 -168 -6 -336 -6 -253 0 -313 -3 -343 -15 -35 -15 -37 -15
-47 8 -9 20 -18 24 -64 25 -30 0 -62 5 -72 10 -10 5 -79 10 -153 11 -74 2
-139 6 -145 10 -5 5 -23 11 -40 15 -16 3 -40 8 -52 11 -13 3 -35 7 -50 10 -16
3 -37 8 -48 10 -11 2 -40 6 -63 9 -24 3 -49 9 -55 15 -7 5 -15 10 -20 10 -23
2 -64 15 -76 25 -8 6 -17 10 -20 9 -3 -1 -37 7 -76 19 -70 22 -225 32 -254 18
-11 -6 23 -22 94 -44 6 -2 19 -6 30 -11 216 -81 344 -116 445 -120 36 -2 83
-11 104 -20 41 -17 60 -22 111 -30 17 -3 41 -7 55 -10 96 -20 202 -35 210 -30
6 3 10 3 10 -2 0 -9 5 -10 220 -19 300 -13 658 -6 681 13 8 6 37 11 66 10 29
0 59 5 67 12 10 8 16 9 21 1 9 -15 35 -12 35 4 0 20 28 28 77 20 28 -4 43 -3
43 5 0 7 8 8 23 3 32 -12 57 -8 105 17 31 16 47 19 61 12 23 -13 98 -7 142 11
19 8 64 16 100 17 166 6 188 10 263 50 31 17 90 40 130 51 40 11 96 32 125 45
28 14 54 26 58 26 5 1 26 14 48 29 50 34 110 60 140 60 26 0 58 31 38 37 -26
9 27 48 67 49 45 1 86 25 102 59 6 14 26 29 46 36 20 7 46 21 58 33 66 60 344
254 375 261 16 4 50 31 81 64 32 35 89 79 143 112 49 29 103 68 120 85 46 47
79 65 126 68 29 2 48 10 60 25 16 20 36 30 25 13 -5 -8 70 -6 149 4 64 8 78
38 90 192 6 77 25 120 65 147 16 11 37 36 47 55 10 19 21 37 24 40 5 4 28 64
34 90 1 3 4 12 8 20 3 8 13 44 22 80 10 36 20 72 23 80 7 19 9 28 11 39 0 6
14 24 31 42 29 33 33 67 9 94 -14 14 -11 22 9 27 11 3 31 21 46 41 24 32 28
46 31 124 2 82 23 162 65 248 19 41 59 154 80 231 11 43 27 88 34 99 7 11 13
38 13 59 0 24 6 43 15 50 15 11 20 27 33 109 3 17 8 43 12 57 3 14 6 28 5 33
-1 4 2 26 7 50 5 23 12 60 15 82 3 22 9 54 13 70 3 17 7 39 7 50 1 11 4 25 8
30 16 26 26 265 13 325 -2 14 -7 36 -10 50 -3 14 -7 50 -10 80 -3 30 -14 71
-24 91 -19 35 -23 129 -21 448 0 48 -6 85 -16 105 -9 17 -17 38 -19 47 -2 8
-11 46 -20 83 -9 37 -18 72 -19 79 -4 18 -16 67 -28 115 -9 36 -8 45 6 55 23
17 26 69 5 111 -9 20 -14 36 -11 36 4 0 3 4 -3 8 -26 19 -39 47 -41 90 -6 102
-21 213 -35 259 -6 17 -12 44 -15 60 -3 15 -18 59 -33 98 -15 38 -31 84 -35
100 -4 17 -21 53 -39 80 -17 28 -32 51 -33 53 -1 1 -12 5 -24 7 -35 7 -33 2
-44 113 -3 24 -11 51 -20 60 -15 17 -35 63 -41 95 -2 10 -20 39 -40 65 -30 40
-105 181 -105 198 0 7 -71 118 -80 124 -14 10 -69 118 -74 145 -3 15 -14 36
-26 47 -20 18 -20 18 -20 -1 0 -10 -7 -21 -15 -25 -13 -4 -12 -12 5 -51 23
-54 25 -65 8 -43 -7 9 -22 18 -33 20 -15 2 -20 11 -20 34 0 17 -9 44 -20 60
-19 29 -55 63 -65 60 -12 -2 -92 68 -102 90 -6 13 -25 30 -42 38 -33 16 -86
67 -132 130 -45 62 -100 112 -216 198 -60 44 -108 83 -108 87 0 4 -20 30 -45
58 -30 33 -56 53 -77 57 -50 10 -178 98 -178 122 0 16 -61 63 -95 73 -20 5
-52 22 -72 37 -19 15 -58 36 -86 46 -50 19 -51 19 -35 1 10 -10 61 -43 114
-73 53 -30 120 -77 148 -103 28 -26 78 -66 111 -89 62 -42 110 -86 103 -94 -3
-2 -24 3 -48 11 -24 8 -53 17 -65 19 -22 4 -186 82 -275 131 -25 14 -50 25
-56 25 -6 0 -23 9 -37 21 -15 11 -37 22 -49 24 -13 3 -36 8 -53 12 -16 4 -32
7 -35 8 -14 3 -96 19 -102 19 -3 1 -9 4 -13 8 -4 4 -13 4 -21 1 -8 -3 -32 8
-52 24 -31 25 -66 43 -92 48 -3 0 -20 9 -37 18 -18 10 -33 14 -33 10 0 -4 -5
-2 -12 5 -7 7 -22 12 -34 12 -13 0 -93 23 -179 50 -85 28 -160 48 -165 45 -5
-3 -19 4 -30 15 -21 21 -85 30 -108 16 -5 -3 -20 3 -34 13 -31 25 -46 27 -81
13 -37 -16 -41 -15 -78 7 -24 15 -36 17 -49 9 -12 -8 -27 -8 -51 1 -71 26
-137 36 -226 36 -51 0 -93 4 -93 8 0 5 -4 6 -9 3 -4 -3 -16 3 -26 14 -20 22
-13 37 20 40 35 4 43 1 48 -19 3 -13 13 -19 26 -18 28 2 26 13 -5 42 -30 28
-45 30 -109 13 -36 -10 -45 -17 -45 -34 0 -20 -4 -22 -68 -19 -47 1 -81 9
-108 23 -55 29 -88 36 -181 36 -45 1 -84 4 -88 7 -6 6 47 20 90 24 11 1 34 5
50 8 17 4 48 9 70 13 22 3 47 8 55 9 8 2 24 4 36 4 11 1 28 7 37 14 15 10 10
12 -30 13 -27 0 -83 3 -125 6 -42 3 -80 3 -83 -1z m3475 -1626 c0 -12 -20 6
-31 28 l-11 22 21 -22 c11 -12 21 -25 21 -28z m-7056 -2641 c3 -8 2 -12 -4 -9
-6 3 -10 10 -10 16 0 14 7 11 14 -7z"/>
<path d="M5137 8155 c34 -34 39 -36 62 -24 l26 12 -40 17 c-80 35 -87 34 -48
-5z"/>
<path d="M4499 8154 c-6 -7 -4 -16 7 -25 14 -11 18 -10 30 6 8 10 14 22 14 26
0 12 -40 6 -51 -7z"/>
<path d="M5380 8082 c0 -5 14 -21 32 -36 25 -20 42 -26 75 -24 24 1 43 5 43
10 0 11 -55 35 -97 41 -17 3 -37 8 -42 12 -6 3 -11 2 -11 -3z"/>
<path d="M2470 8037 c-86 -38 -108 -47 -130 -51 -71 -15 -105 -27 -164 -60
-36 -20 -69 -43 -73 -50 -4 -7 -15 -16 -23 -19 -12 -4 -12 -6 2 -6 10 -1 41
14 70 33 69 43 130 71 196 86 28 6 54 16 57 21 3 5 26 17 50 28 25 11 45 22
45 25 0 7 1 7 -30 -7z"/>
<path d="M2555 8020 c-4 -6 3 -10 14 -10 25 0 27 6 6 13 -8 4 -17 2 -20 -3z"/>
<path d="M5600 7991 c14 -11 34 -20 45 -20 14 0 16 2 5 6 -8 3 -28 12 -45 20
l-30 14 25 -20z"/>
<path d="M5707 7939 c7 -7 15 -10 18 -7 3 3 -2 9 -12 12 -14 6 -15 5 -6 -5z"/>
<path d="M5750 7928 c0 -2 9 -11 20 -21 11 -9 20 -13 20 -7 0 5 -9 14 -20 20
-11 6 -20 9 -20 8z"/>
<path d="M2050 7829 c0 -5 5 -7 10 -4 6 3 10 8 10 11 0 2 -4 4 -10 4 -5 0 -10
-5 -10 -11z"/>
<path d="M1805 7709 c-27 -21 -68 -48 -90 -60 -42 -22 -75 -52 -75 -67 0 -6
-17 -18 -37 -27 -43 -21 -62 -38 -80 -72 l-13 -25 36 21 c19 12 40 19 45 15
14 -8 69 35 69 54 0 25 51 83 102 117 52 35 112 85 101 84 -4 0 -30 -18 -58
-40z"/>
<path d="M1510 7429 c0 -5 5 -7 10 -4 6 3 10 8 10 11 0 2 -4 4 -10 4 -5 0 -10
-5 -10 -11z"/>
<path d="M1426 7405 c-20 -14 -47 -27 -60 -31 -35 -8 -80 -60 -82 -94 -1 -17
1 -30 4 -30 4 0 50 41 102 90 94 89 107 113 36 65z"/>
<path d="M1568 7383 c7 -3 16 -2 19 1 4 3 -2 6 -13 5 -11 0 -14 -3 -6 -6z"/>
<path d="M1358 7280 c-24 -22 -46 -40 -49 -40 -4 0 -10 -7 -13 -16 -5 -12 1
-11 28 5 40 25 47 26 39 4 -4 -11 -3 -14 6 -9 6 4 11 13 10 19 -3 26 2 37 16
37 8 0 15 9 15 20 0 27 -4 26 -52 -20z"/>
<path d="M1199 7180 c-27 -27 -55 -50 -62 -50 -32 -1 -64 -31 -132 -126 -26
-36 -36 -44 -83 -73 -28 -17 -42 -33 -46 -54 -3 -16 -14 -37 -24 -46 -18 -16
-36 -51 -47 -86 -3 -11 -25 -42 -50 -69 -25 -27 -45 -55 -45 -62 0 -7 -6 -17
-12 -21 -7 -4 -21 -22 -30 -39 -16 -29 -17 -33 -1 -45 14 -12 17 -11 27 5 6
10 26 38 44 62 18 24 32 46 32 49 -5 26 16 64 48 85 20 14 73 61 117 105 44
44 100 95 123 113 23 19 42 40 42 48 0 8 3 14 8 14 4 1 27 28 52 61 25 33 58
75 73 94 18 22 24 36 17 40 -8 5 -6 13 6 26 11 12 13 19 5 19 -7 0 -35 -22
-62 -50z"/>
<path d="M828 6677 c-29 -11 -35 -22 -18 -32 13 -8 46 10 54 30 6 17 2 17 -36
2z"/>
<path d="M683 6168 c-16 -20 -54 -128 -45 -128 4 0 23 26 43 58 33 52 40 82
19 82 -4 0 -12 -6 -17 -12z"/>
<path d="M8327 4347 c-21 -16 -28 -147 -8 -147 13 0 23 36 23 81 -1 25 5 42
14 47 13 7 13 10 1 20 -10 9 -17 9 -30 -1z"/>
<path d="M8416 4313 c-6 -14 -5 -15 5 -6 7 7 10 15 7 18 -3 3 -9 -2 -12 -12z"/>
<path d="M8377 4303 c-4 -3 -7 -18 -7 -32 0 -30 18 -17 25 17 4 21 -5 29 -18
15z"/>
<path d="M8386 4156 c-11 -23 -27 -52 -36 -66 -23 -34 -41 -88 -30 -95 4 -3 7
-33 5 -68 -3 -47 -10 -73 -27 -99 -16 -24 -23 -47 -22 -69 4 -44 -14 -99 -31
-99 -32 0 -37 37 -21 155 2 16 0 39 -5 50 -8 22 -8 22 -14 -44 -3 -25 -10 -48
-16 -52 -20 -12 -27 -62 -16 -105 4 -17 2 -21 -13 -17 -15 4 -18 -1 -18 -31 0
-23 5 -36 13 -36 13 0 12 -40 -1 -61 -2 -5 -7 -41 -9 -81 -3 -40 -8 -91 -12
-113 -4 -22 -7 -47 -7 -55 -1 -16 -56 -152 -65 -160 -14 -12 -72 -212 -74
-257 -3 -36 -11 -60 -32 -87 -15 -20 -30 -51 -32 -69 -7 -61 -22 -117 -32
-117 -4 0 -15 -15 -24 -34 -14 -30 -14 -36 -1 -46 10 -9 14 -9 14 -1 0 6 6 11
14 11 8 0 18 9 21 20 4 13 15 20 30 20 13 0 27 5 30 11 12 19 33 -23 26 -50
-12 -43 -7 -74 11 -77 11 -1 20 8 27 26 9 27 35 49 56 47 18 -2 106 171 125
244 6 24 18 58 26 76 8 17 12 37 9 45 -3 8 5 30 18 49 30 45 69 130 63 136 -3
3 2 19 10 35 8 16 18 50 21 76 3 26 11 63 18 82 6 19 10 52 8 73 -3 31 0 40
15 44 22 5 42 62 41 114 0 29 -2 31 -9 13 -4 -12 -16 -24 -24 -27 -13 -5 -15
-1 -10 21 4 15 15 34 26 42 20 17 22 23 33 110 18 145 18 145 34 164 7 9 11
26 8 38 -4 12 -1 28 4 34 21 26 -22 94 -60 97 -25 2 -29 37 -5 37 13 0 15 7 9
38 -4 20 -13 44 -20 52 -8 9 -12 25 -9 37 3 12 0 30 -7 41 -13 18 -15 17 -33
-22z"/>
<path d="M1049 1442 c11 -16 27 -35 36 -42 28 -23 17 17 -12 45 -37 33 -49 32
-24 -3z"/>
</g>
</svg>
